<svg width="32" height="32" viewBox="0 0 32 32" fill="none" xmlns="http://www.w3.org/2000/svg"><path fill-rule="evenodd" clip-rule="evenodd" d="M16 32C24.8366 32 32 24.8366 32 16C32 7.16344 24.8366 0 16 0C7.16344 0 0 7.16344 0 16C0 24.8366 7.16344 32 16 32ZM20.6013 10.4836H18.7272C17.4248 10.4836 17.3295 11.5636 17.3295 11.8177V14.0412H20.4742L20.0931 17.1859H17.3295V25.3178H14.0895V17.1859H11.2942V14.0412H14.0895V11.8177C14.1213 9.68943 14.8836 8.95884 14.8836 8.95884C16.0272 7.49765 17.806 7.52942 17.806 7.52942H18.2825H20.6013V10.4836Z" fill="#000"/></svg>