<svg fill="none" height="32" viewBox="0 0 32 32" width="32" xmlns="http://www.w3.org/2000/svg"><path clip-rule="evenodd" d="m16 32c8.8366 0 16-7.1634 16-16 0-8.83656-7.1634-16-16-16-8.83656 0-16 7.16344-16 16 0 8.8366 7.16344 16 16 16zm.0003-26.28582c6.3027 0 11.4285 4.14475 11.4285 9.25402 0 2.0332-.8107 3.858-2.4845 5.7088-2.3798 2.7631-7.741 6.0998-8.9702 6.6211-1.1988.4831-1.0543-.2985-.9979-.6034.0014-.0077.0028-.0151.0041-.0222.0262-.1564.1569-.9645.1569-.9645.0523-.3128.0785-.7559-.0261-1.0427-.1046-.3389-.6277-.4953-.9938-.5735-5.49201-.7299-9.54562-4.5618-9.54562-9.1236 0-5.10927 5.12586-9.25402 11.42862-9.25402zm-4.2367 12.19962c.1046 0 .2092-.1043.2092-.2346h.0261v-.782c0-.1304-.0784-.2346-.2092-.2346h-2.17062v-3.9102c0-.1303-.10461-.2346-.23537-.2346h-.81072c-.13076 0-.23537.1043-.23537.2346v4.9529c0 .0521.02615.1042.0523.1564.05231.026.10461.0521.15691.0521zm1.9091-.0261c.1308 0 .2354-.0782.2354-.2085v-4.9528c0-.1043-.1046-.2086-.2354-.2086h-.8107c-.1308 0-.2354.0782-.2354.2086v4.9528c0 .1043.1046.2085.2354.2085zm5.5181 0c.1308 0 .2354-.0782.2354-.2085h.0262v-4.9528c0-.1043-.1047-.2086-.2354-.2086h-.8107c-.1308 0-.2354.0782-.2354.2086v2.9456l-2.3799-3.076c-.0261 0-.0261-.026-.0261-.026l-.0262-.0261h-.0261-.8107c-.1308 0-.2354.0782-.2354.2085v4.9529c0 .1042.1046.2085.2354.2085h.8107c.1307 0 .2353-.0782.2353-.2085v-2.9457l2.2753 3.076c0 .0161.01.0223.0238.0308.0085.0052.0185.0114.0285.0213h.0262.0261.0523zm4.4459-4.1447c.1046 0 .2093-.1043.2093-.2346h-.0262v-.7038c0-.1304-.0785-.2346-.2092-.2346h-3.1906c-.0523 0-.1046.026-.1569.0521-.0262.0521-.0523.1043-.0523.1564v4.9528c0 .0522.0261.1043.0523.1564.0523.0261.1046.0522.1569.0522h3.2167c.1046 0 .2093-.1043.2093-.2346v-.8081c0-.1304-.0785-.2346-.2093-.2346h-2.1706v-.8081h2.1706c.1046 0 .2093-.1043.2093-.2346v-.8081c0-.1304-.0785-.2346-.2093-.2346h-2.1706v-.8342z" fill="#000" fill-rule="evenodd"/></svg>