<svg fill="none" height="24" viewBox="0 0 24 24" width="24" xmlns="http://www.w3.org/2000/svg"><path clip-rule="evenodd" d="m12 24c6.6274 0 12-5.3726 12-12 0-6.62742-5.3726-12-12-12-6.62742 0-12 5.37258-12 12 0 6.6274 5.37258 12 12 12zm3.4509-16.1373h-1.4056c-.9767 0-1.0482.81-1.0482 1.00059v1.66761h2.3585l-.2859 2.3586h-2.0726v6.0989h-2.43v-6.0989h-2.09651v-2.3586h2.09651v-1.66761c.0238-1.59618.5956-2.14413.5956-2.14413.8576-1.09589 2.1917-1.07206 2.1917-1.07206h.3574 1.7391z" fill="#fff" fill-rule="evenodd"/></svg>