<svg fill="none" height="24" viewBox="0 0 24 24" width="24" xmlns="http://www.w3.org/2000/svg"><path clip-rule="evenodd" d="m12 24c6.6274 0 12-5.3726 12-12 0-6.62742-5.3726-12-12-12-6.62742 0-12 5.37258-12 12 0 6.6274 5.37258 12 12 12zm0-19.71423c4.727 0 8.5714 3.10855 8.5714 6.94053 0 1.5249-.608 2.8935-1.8633 4.2816-1.7849 2.0723-5.8058 4.5748-6.7277 4.9658-.8991.3623-.7907-.2239-.7484-.4525.001-.0058.0021-.0114.003-.0167.0197-.1173.1177-.7234.1177-.7234.0393-.2346.0589-.5669-.0196-.782-.0784-.2542-.4707-.3715-.7453-.4301-4.11902-.5474-7.15923-3.4214-7.15923-6.8427 0-3.83198 3.84439-6.94053 8.57143-6.94053zm-3.17751 9.14973c.07846 0 .15691-.0782.15691-.176h.01962v-.5865c0-.0977-.05884-.1759-.15692-.1759h-1.62798v-2.93265c0-.09775-.07846-.17596-.17653-.17596h-.60804c-.09807 0-.17653.07821-.17653.17596v3.71465c0 .0391.01962.0782.03923.1173.03923.0195.07846.0391.11769.0391zm1.43181-.0196c.0981 0 .1766-.0586.1766-.1564v-3.7146c0-.0782-.0785-.15641-.1766-.15641h-.60801c-.09807 0-.17653.05866-.17653.15641v3.7146c0 .0782.07846.1564.17653.1564zm4.1386 0c.0981 0 .1766-.0586.1766-.1564h.0196v-3.7146c0-.0782-.0785-.15641-.1765-.15641h-.6081c-.0981 0-.1765.05866-.1765.15641v2.2092l-1.7849-2.30695c-.0196 0-.0196-.01956-.0196-.01956l-.0196-.01955h-.0197-.608c-.0981 0-.1765.05866-.1765.15641v3.71465c0 .0782.0784.1564.1765.1564h.608c.0981 0 .1766-.0587.1766-.1564v-2.2092l1.7064 2.3069c0 .0121.0075.0167.0179.0231.0064.004.0138.0086.0213.016h.0197.0196.0392zm3.3345-3.1085c.0784 0 .1569-.0782.1569-.176h-.0196v-.52785c0-.09775-.0589-.17596-.157-.17596h-2.3929c-.0392 0-.0784.01956-.1177.03911-.0196.0391-.0392.0782-.0392.1173v3.7146c0 .0391.0196.0782.0392.1173.0393.0196.0785.0391.1177.0391h2.4126c.0784 0 .1569-.0782.1569-.1759v-.6061c0-.0977-.0589-.1759-.1569-.1759h-1.628v-.6061h1.628c.0784 0 .1569-.0782.1569-.176v-.606c0-.0978-.0589-.176-.1569-.176h-1.628v-.6256z" fill="#fff" fill-rule="evenodd"/></svg>