<svg fill="none" height="32" viewBox="0 0 32 32" width="32" xmlns="http://www.w3.org/2000/svg"><path d="m32 16c0 8.8366-7.1634 16-16 16-8.83656 0-16-7.1634-16-16 0-8.83656 7.16344-16 16-16 8.8366 0 16 7.16344 16 16z" fill="#000"/><path clip-rule="evenodd" d="m23.95 10.4561c-.6755-.67788-1.5931-1.05888-2.55-1.05888s-1.8745.381-2.55 1.05888l.852.852c.6077-.6078 1.4935-.8451 2.3236-.6227.8302.2225 1.4786.8709 1.701 1.701.2224.8302-.0149 1.7159-.6226 2.3237l-4.8 4.8c-.6066.6077-1.4914.8456-2.321.6241s-1.478-.8688-1.701-1.698c-.223-.8293.0134-1.7144.62-2.3221l.846-.852-.846-.852-.852.852c-.6778.6754-1.0588 1.593-1.0588 2.55 0 .9569.381 1.8745 1.0588 2.55.6789.6702 1.596 1.0435 2.55 1.038.9607.0039 1.8831-.3763 2.562-1.056l4.8-4.8c1.4005-1.4089 1.3951-3.6858-.012-5.088zm-15.036 10.836c-.4525-.4504-.7069-1.0626-.7069-1.701 0-.6385.2544-1.2506.7069-1.701l4.8-4.8c.4504-.4525 1.0625-.7069 1.701-.7069s1.2506.2544 1.701.7069c.4498.4541.6965 1.0709.684 1.71.0037.6408-.2491 1.2565-.702 1.71l-1.272 1.29.852.852 1.272-1.272c1.41-1.41 1.41-3.6961 0-5.106-1.41-1.41-3.696-1.41-5.106 0l-4.8 4.8c-.67968.6757-1.06185 1.5945-1.06185 2.553 0 .9584.38217 1.8772 1.06185 2.553.68329.665 1.60254 1.0319 2.556 1.02.9619.0009 1.885-.3787 2.568-1.056l-.852-.852c-.4504.4525-1.0625.7069-1.701.7069-.63845 0-1.2506-.2544-1.701-.7069z" fill="#fff" fill-rule="evenodd"/></svg>